<?xml version="1.0" encoding="utf-8" ?>
<svg xmlns="http://www.w3.org/2000/svg" xmlns:xlink="http://www.w3.org/1999/xlink" width="40" height="22.4" viewBox="0 0 40 22.4">
	<path d="M6.5 3.2L3.5 3.2C2.66875 3.2 2 3.735 2 4.4L2 9.6L0.5 9.6C0.225 9.6 0 9.78 0 10L0 12.4C0 12.62 0.225 12.8 0.5 12.8L2 12.8L2 18C2 18.665 2.66875 19.2 3.5 19.2L6.5 19.2C7.33125 19.2 8 18.665 8 18L8 4.4C8 3.735 7.33125 3.2 6.5 3.2ZM39.5 9.6L38 9.6L38 4.4C38 3.735 37.3312 3.2 36.5 3.2L33.5 3.2C32.6688 3.2 32 3.735 32 4.4L32 18C32 18.665 32.6688 19.2 33.5 19.2L36.5 19.2C37.3312 19.2 38 18.665 38 18L38 12.8L39.5 12.8C39.775 12.8 40 12.62 40 12.4L40 10C40 9.78 39.775 9.6 39.5 9.6ZM28.5 0L25.5 0C24.6688 0 24 0.535 24 1.2L24 9.6L16 9.6L16 1.2C16 0.535 15.3313 0 14.5 0L11.5 0C10.6687 0 10 0.535 10 1.2L10 21.2C10 21.865 10.6687 22.4 11.5 22.4L14.5 22.4C15.3313 22.4 16 21.865 16 21.2L16 12.8L24 12.8L24 21.2C24 21.865 24.6688 22.4 25.5 22.4L28.5 22.4C29.3312 22.4 30 21.865 30 21.2L30 1.2C30 0.535 29.3312 0 28.5 0Z" fill-rule="nonzero" transform="matrix(1 0 0 1 0 1.23978e-05)" fill="rgb(43, 59, 228)"/>
	<path d="M25.5 0L28.5 0C29.3312 0 30 0.535 30 1.2L30 21.2C30 21.865 29.3312 22.4 28.5 22.4L25.5 22.4C24.6688 22.4 24 21.865 24 21.2L24 12.8L16 12.8L16 21.2C16 21.865 15.3313 22.4 14.5 22.4L11.5 22.4C10.6687 22.4 10 21.865 10 21.2L10 1.2C10 0.535 10.6687 0 11.5 0L14.5 0C15.3313 0 16 0.535 16 1.2L16 9.6L24 9.6L24 1.2C24 0.535 24.6688 0 25.5 0ZM25.5 0.5L28.5 0.5Q28.948 0.5 29.2494 0.741059Q29.5 0.941563 29.5 1.2L29.5 21.2Q29.5 21.4584 29.2494 21.6589Q28.948 21.9 28.5 21.9L25.5 21.9Q25.052 21.9 24.7506 21.6589Q24.5 21.4584 24.5 21.2L24.5 12.3L15.5 12.3L15.5 21.2Q15.5 21.4584 15.2494 21.6589Q14.948 21.9 14.5 21.9L11.5 21.9Q11.052 21.9 10.7506 21.6589Q10.5 21.4584 10.5 21.2L10.5 1.2Q10.5 0.941562 10.7506 0.741059Q11.052 0.5 11.5 0.5L14.5 0.5Q14.948 0.5 15.2494 0.74106Q15.5 0.941563 15.5 1.2L15.5 10.1L24.5 10.1L24.5 1.2Q24.5 0.941563 24.7506 0.741059Q25.052 0.5 25.5 0.5ZM3.5 3.2L6.5 3.2C7.33125 3.2 8 3.735 8 4.4L8 18C8 18.665 7.33125 19.2 6.5 19.2L3.5 19.2C2.66875 19.2 2 18.665 2 18L2 12.8L0.5 12.8C0.225 12.8 0 12.62 0 12.4L0 10C0 9.78 0.225 9.6 0.5 9.6L2 9.6L2 4.4C2 3.735 2.66875 3.2 3.5 3.2ZM38 9.6L39.5 9.6C39.775 9.6 40 9.78 40 10L40 12.4C40 12.62 39.775 12.8 39.5 12.8L38 12.8L38 18C38 18.665 37.3312 19.2 36.5 19.2L33.5 19.2C32.6688 19.2 32 18.665 32 18L32 4.4C32 3.735 32.6688 3.2 33.5 3.2L36.5 3.2C37.3312 3.2 38 3.735 38 4.4L38 9.6ZM3.5 3.7L6.5 3.7Q6.94805 3.7 7.24937 3.94106Q7.5 4.14156 7.5 4.4L7.5 18Q7.5 18.2584 7.24937 18.4589Q6.94805 18.7 6.5 18.7L3.5 18.7Q3.05195 18.7 2.75063 18.4589Q2.5 18.2584 2.5 18L2.5 12.3L0.5 12.3L0.5 10.1L2.5 10.1L2.5 4.4Q2.5 4.14156 2.75063 3.94106Q3.05195 3.7 3.5 3.7ZM37.5 4.4L37.5 10.1L39.5 10.1L39.5 12.3L37.5 12.3L37.5 18Q37.5 18.2584 37.2494 18.4589Q36.948 18.7 36.5 18.7L33.5 18.7Q33.052 18.7 32.7506 18.4589Q32.5 18.2584 32.5 18L32.5 4.4Q32.5 4.14156 32.7506 3.94106Q33.052 3.7 33.5 3.7L36.5 3.7Q36.948 3.7 37.2494 3.94106Q37.5 4.14156 37.5 4.4Z" fill-rule="evenodd" transform="matrix(1 0 0 1 0 1.23978e-05)" fill="rgb(255, 255, 255)"/>
</svg>
